<svg width="32" height="32" viewBox="0 0 32 32" fill="none" xmlns="http://www.w3.org/2000/svg">
<path d="M26.666 8C27.4393 8 28.066 8.26667 28.5593 8.78667C29.066 9.33333 29.3327 9.93333 29.3327 10.6667V25.3333C29.3327 26.0667 29.066 26.6667 28.5593 27.2133C28.066 27.7333 27.4393 28 26.666 28H5.33268C4.55935 28 3.93268 27.7333 3.43935 27.2133C2.93268 26.6667 2.66602 26.0667 2.66602 25.3333V10.6667C2.66602 9.93333 2.93268 9.33333 3.43935 8.78667C3.93268 8.26667 4.55935 8 5.33268 8H10.666V5.33333C10.666 4.56 10.9327 3.93333 11.4393 3.44C11.9327 2.93333 12.5593 2.66667 13.3327 2.66667H18.666C19.4393 2.66667 20.066 2.93333 20.5593 3.44C21.066 3.93333 21.3327 4.56 21.3327 5.33333V8H26.666ZM5.33268 10.6667V25.3333H26.666V10.6667H5.33268ZM18.666 8V5.33333H13.3327V8H18.666ZM13.946 23.3333L22.7327 14.5467L20.8527 12.6667L13.946 19.56L11.1593 16.7867L9.27935 18.6667L13.946 23.3333Z" fill="#82808F"/>
</svg>
