<svg width="32" height="32" viewBox="0 0 32 32" fill="none" xmlns="http://www.w3.org/2000/svg">
<path d="M14.666 12H17.3327V9.33333H14.666M15.9993 26.6667C10.1193 26.6667 5.33268 21.88 5.33268 16C5.33268 10.12 10.1193 5.33333 15.9993 5.33333C21.8793 5.33333 26.666 10.12 26.666 16C26.666 21.88 21.8793 26.6667 15.9993 26.6667ZM15.9993 2.66666C14.2484 2.66666 12.5146 3.01154 10.8969 3.6816C9.27923 4.35167 7.80937 5.33379 6.57126 6.57191C4.07077 9.07239 2.66602 12.4638 2.66602 16C2.66602 19.5362 4.07077 22.9276 6.57126 25.4281C7.80937 26.6662 9.27923 27.6483 10.8969 28.3184C12.5146 28.9885 14.2484 29.3333 15.9993 29.3333C19.5356 29.3333 22.927 27.9286 25.4274 25.4281C27.9279 22.9276 29.3327 19.5362 29.3327 16C29.3327 14.249 28.9878 12.5152 28.3177 10.8976C27.6477 9.27988 26.6656 7.81002 25.4274 6.57191C24.1893 5.33379 22.7195 4.35167 21.1018 3.6816C19.4841 3.01154 17.7503 2.66666 15.9993 2.66666ZM14.666 22.6667H17.3327V14.6667H14.666V22.6667Z" fill="#82808F"/>
</svg>
