<svg width="369" height="16" viewBox="0 0 369 16" fill="none" xmlns="http://www.w3.org/2000/svg">
<path d="M5.672 12.16C4.85067 12.16 4.09333 12.016 3.4 11.728C2.70667 11.4293 2.104 11.0187 1.592 10.496C1.09067 9.97333 0.701333 9.36533 0.424 8.672C0.146667 7.97867 0.00800002 7.232 0.00800002 6.432C0.00800002 5.62133 0.146667 4.87467 0.424 4.192C0.701333 3.49867 1.09067 2.896 1.592 2.384C2.09333 1.86133 2.68533 1.46133 3.368 1.184C4.06133 0.896 4.824 0.752 5.656 0.752C6.47733 0.752 7.23467 0.896 7.928 1.184C8.632 1.472 9.23467 1.872 9.736 2.384C10.2373 2.896 10.6267 3.49867 10.904 4.192C11.1813 4.88533 11.32 5.63733 11.32 6.448C11.32 7.248 11.1813 7.99467 10.904 8.688C10.6267 9.38133 10.2373 9.98933 9.736 10.512C9.23467 11.0347 8.63733 11.44 7.944 11.728C7.26133 12.016 6.504 12.16 5.672 12.16ZM5.656 11.504C6.63733 11.504 7.50133 11.28 8.248 10.832C8.99467 10.384 9.576 9.776 9.992 9.008C10.4187 8.24 10.632 7.38133 10.632 6.432C10.632 5.49333 10.4187 4.64533 9.992 3.888C9.576 3.12 8.99467 2.512 8.248 2.064C7.50133 1.616 6.63733 1.392 5.656 1.392C4.67467 1.392 3.81067 1.616 3.064 2.064C2.31733 2.50133 1.736 3.104 1.32 3.872C0.904 4.62933 0.696 5.48267 0.696 6.432C0.696 7.38133 0.904 8.24 1.32 9.008C1.74667 9.776 2.33333 10.384 3.08 10.832C3.82667 11.28 4.68533 11.504 5.656 11.504ZM5.8 9.632C5.20267 9.632 4.65867 9.49333 4.168 9.216C3.67733 8.928 3.288 8.544 3 8.064C2.72267 7.584 2.584 7.04 2.584 6.432C2.584 5.83467 2.72267 5.296 3 4.816C3.288 4.336 3.67733 3.95733 4.168 3.68C4.66933 3.40267 5.21867 3.264 5.816 3.264C6.27467 3.264 6.70667 3.34933 7.112 3.52C7.51733 3.69067 7.86933 3.94133 8.168 4.272L7.32 5.136C7.128 4.92267 6.904 4.76267 6.648 4.656C6.40267 4.54933 6.12533 4.496 5.816 4.496C5.464 4.496 5.144 4.58133 4.856 4.752C4.568 4.912 4.33867 5.14133 4.168 5.44C4.008 5.728 3.928 6.05867 3.928 6.432C3.928 6.816 4.008 7.15733 4.168 7.456C4.33867 7.75467 4.568 7.984 4.856 8.144C5.144 8.304 5.464 8.384 5.816 8.384C6.136 8.384 6.424 8.33067 6.68 8.224C6.936 8.10667 7.14933 7.94667 7.32 7.744L8.168 8.608C7.88 8.93867 7.528 9.19467 7.112 9.376C6.70667 9.54667 6.26933 9.632 5.8 9.632ZM16.7922 11.088L21.0322 6.768C21.4589 6.34133 21.7949 5.97333 22.0402 5.664C22.2856 5.344 22.4616 5.05067 22.5683 4.784C22.6749 4.51733 22.7283 4.24 22.7283 3.952C22.7283 3.38667 22.5362 2.944 22.1522 2.624C21.7789 2.304 21.2882 2.144 20.6802 2.144C20.1149 2.144 19.6029 2.27733 19.1442 2.544C18.6962 2.8 18.2962 3.22133 17.9442 3.808L16.8722 2.928C17.3202 2.20267 17.8642 1.65867 18.5042 1.296C19.1442 0.922666 19.8856 0.735999 20.7283 0.735999C21.4322 0.735999 22.0402 0.869333 22.5522 1.136C23.0749 1.40267 23.4802 1.776 23.7682 2.256C24.0562 2.736 24.2002 3.296 24.2002 3.936C24.2002 4.40533 24.1416 4.82133 24.0243 5.184C23.9069 5.54667 23.7043 5.91467 23.4163 6.288C23.1283 6.66133 22.7229 7.10933 22.2003 7.632L18.7602 11.04L16.7922 11.088ZM16.7922 12V11.088L18.0562 10.656H24.4722V12H16.7922ZM30.3097 12.16C29.5097 12.16 28.7791 11.9253 28.1177 11.456C27.4671 10.9867 26.9444 10.32 26.5497 9.456C26.1551 8.592 25.9577 7.584 25.9577 6.432C25.9577 5.26933 26.1497 4.26133 26.5337 3.408C26.9284 2.55467 27.4511 1.89867 28.1017 1.44C28.7631 0.970666 29.4937 0.735999 30.2937 0.735999C31.0937 0.735999 31.8191 0.970666 32.4697 1.44C33.1311 1.89867 33.6538 2.55467 34.0378 3.408C34.4324 4.26133 34.6298 5.27467 34.6298 6.448C34.6298 7.61067 34.4324 8.624 34.0378 9.488C33.6538 10.3413 33.1364 11.0027 32.4857 11.472C31.8351 11.9307 31.1097 12.16 30.3097 12.16ZM30.2937 10.736C30.8484 10.736 31.3337 10.576 31.7497 10.256C32.1764 9.92533 32.5071 9.44 32.7417 8.8C32.9871 8.16 33.1097 7.37067 33.1097 6.432C33.1097 5.49333 32.9871 4.70933 32.7417 4.08C32.5071 3.44 32.1764 2.96 31.7497 2.64C31.3337 2.30933 30.8484 2.144 30.2937 2.144C29.7391 2.144 29.2484 2.30933 28.8217 2.64C28.4057 2.96 28.0751 3.44 27.8297 4.08C27.5951 4.70933 27.4777 5.49333 27.4777 6.432C27.4777 7.37067 27.5951 8.16 27.8297 8.8C28.0751 9.44 28.4111 9.92533 28.8377 10.256C29.2644 10.576 29.7497 10.736 30.2937 10.736ZM35.9872 11.088L40.2272 6.768C40.6539 6.34133 40.9899 5.97333 41.2352 5.664C41.4806 5.344 41.6566 5.05067 41.7632 4.784C41.8699 4.51733 41.9232 4.24 41.9232 3.952C41.9232 3.38667 41.7312 2.944 41.3472 2.624C40.9739 2.304 40.4832 2.144 39.8752 2.144C39.3099 2.144 38.7979 2.27733 38.3392 2.544C37.8912 2.8 37.4912 3.22133 37.1392 3.808L36.0672 2.928C36.5152 2.20267 37.0592 1.65867 37.6992 1.296C38.3392 0.922666 39.0806 0.735999 39.9232 0.735999C40.6272 0.735999 41.2352 0.869333 41.7472 1.136C42.2699 1.40267 42.6752 1.776 42.9632 2.256C43.2512 2.736 43.3952 3.296 43.3952 3.936C43.3952 4.40533 43.3366 4.82133 43.2192 5.184C43.1019 5.54667 42.8992 5.91467 42.6112 6.288C42.3232 6.66133 41.9179 7.10933 41.3952 7.632L37.9552 11.04L35.9872 11.088ZM35.9872 12V11.088L37.2512 10.656H43.6672V12H35.9872ZM45.5847 11.088L49.8247 6.768C50.2514 6.34133 50.5874 5.97333 50.8327 5.664C51.0781 5.344 51.2541 5.05067 51.3607 4.784C51.4674 4.51733 51.5207 4.24 51.5207 3.952C51.5207 3.38667 51.3287 2.944 50.9447 2.624C50.5714 2.304 50.0807 2.144 49.4727 2.144C48.9074 2.144 48.3954 2.27733 47.9367 2.544C47.4887 2.8 47.0887 3.22133 46.7367 3.808L45.6647 2.928C46.1127 2.20267 46.6567 1.65867 47.2967 1.296C47.9367 0.922666 48.6781 0.735999 49.5207 0.735999C50.2247 0.735999 50.8327 0.869333 51.3447 1.136C51.8674 1.40267 52.2727 1.776 52.5607 2.256C52.8487 2.736 52.9927 3.296 52.9927 3.936C52.9927 4.40533 52.9341 4.82133 52.8167 5.184C52.6994 5.54667 52.4967 5.91467 52.2087 6.288C51.9207 6.66133 51.5154 7.10933 50.9927 7.632L47.5527 11.04L45.5847 11.088ZM45.5847 12V11.088L46.8487 10.656H53.2647V12H45.5847ZM61.9984 12L58.3664 0.896H59.8704L62.7504 9.952H62.3184L65.1504 0.896H66.2384L69.0704 9.952H68.6544L71.5344 0.896H73.0224L69.4064 12H68.3344L65.4864 2.96H65.9024L63.0704 12H61.9984ZM77.1216 12.16C76.3643 12.16 75.6816 11.9893 75.0736 11.648C74.4656 11.296 73.9856 10.8213 73.6336 10.224C73.2816 9.62667 73.1056 8.94933 73.1056 8.192C73.1056 7.44533 73.2763 6.77333 73.6176 6.176C73.9696 5.57867 74.439 5.10933 75.0256 4.768C75.623 4.416 76.2896 4.24 77.0256 4.24C77.7296 4.24 78.3483 4.4 78.8816 4.72C79.4256 5.04 79.847 5.48267 80.1456 6.048C80.455 6.61333 80.6096 7.25333 80.6096 7.968C80.6096 8.07467 80.6043 8.192 80.5936 8.32C80.583 8.43733 80.5616 8.576 80.5296 8.736H74.1136V7.536H79.7616L79.2336 8C79.2336 7.488 79.143 7.056 78.9616 6.704C78.7803 6.34133 78.5243 6.064 78.1936 5.872C77.863 5.66933 77.463 5.568 76.9936 5.568C76.503 5.568 76.071 5.67467 75.6976 5.888C75.3243 6.10133 75.0363 6.4 74.8336 6.784C74.631 7.168 74.5296 7.62133 74.5296 8.144C74.5296 8.67733 74.6363 9.14667 74.8496 9.552C75.063 9.94667 75.367 10.256 75.7616 10.48C76.1563 10.6933 76.6096 10.8 77.1216 10.8C77.5483 10.8 77.9376 10.7253 78.2896 10.576C78.6523 10.4267 78.9616 10.2027 79.2176 9.904L80.1456 10.848C79.783 11.2747 79.335 11.6 78.8016 11.824C78.279 12.048 77.719 12.16 77.1216 12.16ZM85.5718 12.16C84.8784 12.16 84.2491 11.9893 83.6838 11.648C83.1184 11.296 82.6704 10.8213 82.3398 10.224C82.0198 9.62667 81.8598 8.95467 81.8598 8.208C81.8598 7.46133 82.0198 6.78933 82.3398 6.192C82.6704 5.59467 83.1131 5.12 83.6678 4.768C84.2331 4.416 84.8678 4.24 85.5718 4.24C86.1478 4.24 86.6598 4.36267 87.1078 4.608C87.5664 4.84267 87.9344 5.17333 88.2118 5.6C88.4891 6.016 88.6438 6.50133 88.6758 7.056V9.344C88.6438 9.888 88.4891 10.3733 88.2118 10.8C87.9451 11.2267 87.5824 11.5627 87.1238 11.808C86.6758 12.0427 86.1584 12.16 85.5718 12.16ZM85.8118 10.8C86.5264 10.8 87.1024 10.56 87.5398 10.08C87.9771 9.58933 88.1958 8.96533 88.1958 8.208C88.1958 7.68533 88.0944 7.232 87.8918 6.848C87.6998 6.45333 87.4224 6.14933 87.0598 5.936C86.6971 5.712 86.2758 5.6 85.7958 5.6C85.3158 5.6 84.8891 5.712 84.5158 5.936C84.1531 6.16 83.8651 6.46933 83.6518 6.864C83.4491 7.248 83.3478 7.69067 83.3478 8.192C83.3478 8.704 83.4491 9.15733 83.6518 9.552C83.8651 9.936 84.1584 10.24 84.5318 10.464C84.9051 10.688 85.3318 10.8 85.8118 10.8ZM88.0998 12V9.952L88.3718 8.096L88.0998 6.256V4.4H89.5558V12H88.0998ZM92.949 12V1.216H94.389V12H92.949ZM91.077 5.712V4.4H96.261V5.712H91.077ZM103.208 12V7.568C103.208 6.992 103.026 6.51733 102.664 6.144C102.301 5.77067 101.832 5.584 101.256 5.584C100.872 5.584 100.53 5.66933 100.232 5.84C99.933 6.01067 99.6983 6.24533 99.5276 6.544C99.357 6.84267 99.2716 7.184 99.2716 7.568L98.6796 7.232C98.6796 6.656 98.8076 6.144 99.0636 5.696C99.3196 5.248 99.677 4.896 100.136 4.64C100.594 4.37333 101.112 4.24 101.688 4.24C102.264 4.24 102.77 4.368 103.208 4.624C103.656 4.88 104.008 5.23733 104.264 5.696C104.52 6.15467 104.648 6.68267 104.648 7.28V12H103.208ZM97.8316 12V0.575999H99.2716V12H97.8316ZM110.277 12.16C109.52 12.16 108.837 11.9893 108.229 11.648C107.621 11.296 107.141 10.8213 106.789 10.224C106.437 9.62667 106.261 8.94933 106.261 8.192C106.261 7.44533 106.432 6.77333 106.773 6.176C107.125 5.57867 107.595 5.10933 108.181 4.768C108.779 4.416 109.445 4.24 110.181 4.24C110.885 4.24 111.504 4.4 112.037 4.72C112.581 5.04 113.003 5.48267 113.301 6.048C113.611 6.61333 113.765 7.25333 113.765 7.968C113.765 8.07467 113.76 8.192 113.749 8.32C113.739 8.43733 113.717 8.576 113.685 8.736H107.269V7.536H112.917L112.389 8C112.389 7.488 112.299 7.056 112.117 6.704C111.936 6.34133 111.68 6.064 111.349 5.872C111.019 5.66933 110.619 5.568 110.149 5.568C109.659 5.568 109.227 5.67467 108.853 5.888C108.48 6.10133 108.192 6.4 107.989 6.784C107.787 7.168 107.685 7.62133 107.685 8.144C107.685 8.67733 107.792 9.14667 108.005 9.552C108.219 9.94667 108.523 10.256 108.917 10.48C109.312 10.6933 109.765 10.8 110.277 10.8C110.704 10.8 111.093 10.7253 111.445 10.576C111.808 10.4267 112.117 10.2027 112.373 9.904L113.301 10.848C112.939 11.2747 112.491 11.6 111.957 11.824C111.435 12.048 110.875 12.16 110.277 12.16ZM115.495 12V4.4H116.935V12H115.495ZM116.935 7.664L116.391 7.424C116.391 6.45333 116.615 5.68 117.063 5.104C117.511 4.528 118.157 4.24 118.999 4.24C119.383 4.24 119.73 4.30933 120.039 4.448C120.349 4.576 120.637 4.79467 120.903 5.104L119.959 6.08C119.799 5.90933 119.623 5.78667 119.431 5.712C119.239 5.63733 119.015 5.6 118.759 5.6C118.226 5.6 117.789 5.77067 117.447 6.112C117.106 6.45333 116.935 6.97067 116.935 7.664ZM124.433 12.064L121.137 4.4H122.737L125.185 10.4H124.673L127.249 4.4H128.849L125.297 12.064H124.433ZM122.257 15.184L124.497 10.592L125.297 12.064L123.857 15.184H122.257ZM129.302 13.76L130.294 11.856L130.806 11.728C130.752 11.8453 130.683 11.9413 130.598 12.016C130.523 12.0907 130.427 12.128 130.31 12.128C130.086 12.128 129.878 12.0373 129.686 11.856C129.504 11.664 129.414 11.4293 129.414 11.152C129.414 10.8427 129.515 10.5867 129.718 10.384C129.92 10.1707 130.176 10.064 130.486 10.064C130.763 10.064 131.008 10.1707 131.222 10.384C131.435 10.5867 131.542 10.8427 131.542 11.152C131.542 11.2693 131.515 11.4133 131.462 11.584C131.419 11.744 131.328 11.952 131.19 12.208L130.134 14.208L129.302 13.76ZM136.263 12L140.807 0.896H141.895L146.423 12H144.791L141.063 2.608H141.623L137.863 12H136.263ZM138.423 9.488V8.176H144.263V9.488H138.423ZM148.124 12V0.575999H149.564V12H148.124ZM151.83 12V0.575999H153.27V12H151.83ZM159.025 12V4.4H160.465V12H159.025ZM160.465 7.664L159.921 7.424C159.921 6.45333 160.145 5.68 160.593 5.104C161.041 4.528 161.687 4.24 162.529 4.24C162.913 4.24 163.26 4.30933 163.569 4.448C163.879 4.576 164.167 4.79467 164.433 5.104L163.489 6.08C163.329 5.90933 163.153 5.78667 162.961 5.712C162.769 5.63733 162.545 5.6 162.289 5.6C161.756 5.6 161.319 5.77067 160.977 6.112C160.636 6.45333 160.465 6.97067 160.465 7.664ZM165.623 12V4.4H167.063V12H165.623ZM166.343 2.88C166.077 2.88 165.858 2.79467 165.687 2.624C165.517 2.44267 165.431 2.21867 165.431 1.952C165.431 1.696 165.517 1.48267 165.687 1.312C165.858 1.13067 166.077 1.04 166.343 1.04C166.61 1.04 166.829 1.13067 166.999 1.312C167.17 1.48267 167.255 1.696 167.255 1.952C167.255 2.21867 167.17 2.44267 166.999 2.624C166.829 2.79467 166.61 2.88 166.343 2.88ZM172.497 15.344C171.719 15.344 171.025 15.2 170.417 14.912C169.82 14.624 169.34 14.2187 168.977 13.696L169.905 12.752C170.215 13.1467 170.583 13.4453 171.009 13.648C171.436 13.8613 171.943 13.968 172.529 13.968C173.308 13.968 173.921 13.76 174.369 13.344C174.828 12.9387 175.057 12.3893 175.057 11.696V9.808L175.313 8.096L175.057 6.4V4.4H176.497V11.696C176.497 12.4213 176.327 13.056 175.985 13.6C175.655 14.144 175.185 14.5707 174.577 14.88C173.98 15.1893 173.287 15.344 172.497 15.344ZM172.497 11.872C171.804 11.872 171.18 11.7067 170.625 11.376C170.081 11.0453 169.649 10.592 169.329 10.016C169.009 9.42933 168.849 8.77333 168.849 8.048C168.849 7.32267 169.009 6.67733 169.329 6.112C169.649 5.536 170.081 5.08267 170.625 4.752C171.18 4.41067 171.804 4.24 172.497 4.24C173.095 4.24 173.623 4.35733 174.081 4.592C174.54 4.82667 174.903 5.15733 175.169 5.584C175.447 6 175.596 6.49067 175.617 7.056V9.072C175.585 9.62667 175.431 10.1173 175.153 10.544C174.887 10.96 174.524 11.2853 174.065 11.52C173.607 11.7547 173.084 11.872 172.497 11.872ZM172.785 10.512C173.255 10.512 173.665 10.4107 174.017 10.208C174.38 10.0053 174.657 9.72267 174.849 9.36C175.041 8.98667 175.137 8.55467 175.137 8.064C175.137 7.57333 175.036 7.14667 174.833 6.784C174.641 6.41067 174.369 6.12267 174.017 5.92C173.665 5.70667 173.249 5.6 172.769 5.6C172.289 5.6 171.868 5.70667 171.505 5.92C171.143 6.12267 170.855 6.41067 170.641 6.784C170.439 7.14667 170.337 7.568 170.337 8.048C170.337 8.528 170.439 8.95467 170.641 9.328C170.855 9.70133 171.143 9.99467 171.505 10.208C171.879 10.4107 172.305 10.512 172.785 10.512ZM184.147 12V7.568C184.147 6.992 183.966 6.51733 183.603 6.144C183.24 5.77067 182.771 5.584 182.195 5.584C181.811 5.584 181.47 5.66933 181.171 5.84C180.872 6.01067 180.638 6.24533 180.467 6.544C180.296 6.84267 180.211 7.184 180.211 7.568L179.619 7.232C179.619 6.656 179.747 6.144 180.003 5.696C180.259 5.248 180.616 4.896 181.075 4.64C181.534 4.37333 182.051 4.24 182.627 4.24C183.203 4.24 183.71 4.368 184.147 4.624C184.595 4.88 184.947 5.23733 185.203 5.696C185.459 6.15467 185.587 6.68267 185.587 7.28V12H184.147ZM178.771 12V0.575999H180.211V12H178.771ZM188.771 12V1.216H190.211V12H188.771ZM186.899 5.712V4.4H192.083V5.712H186.899ZM195.913 12.16C195.487 12.16 195.081 12.1067 194.697 12C194.324 11.8827 193.977 11.7227 193.657 11.52C193.337 11.3067 193.06 11.056 192.825 10.768L193.753 9.84C194.031 10.1813 194.351 10.4373 194.713 10.608C195.076 10.768 195.481 10.848 195.929 10.848C196.377 10.848 196.724 10.7733 196.969 10.624C197.215 10.464 197.337 10.2453 197.337 9.968C197.337 9.69067 197.236 9.47733 197.033 9.328C196.841 9.168 196.591 9.04 196.281 8.944C195.972 8.83733 195.641 8.736 195.289 8.64C194.948 8.53333 194.623 8.4 194.313 8.24C194.004 8.08 193.748 7.86133 193.545 7.584C193.353 7.30667 193.257 6.93867 193.257 6.48C193.257 6.02133 193.369 5.62667 193.593 5.296C193.817 4.95467 194.127 4.69333 194.521 4.512C194.927 4.33067 195.412 4.24 195.977 4.24C196.575 4.24 197.103 4.34667 197.561 4.56C198.031 4.76267 198.415 5.072 198.713 5.488L197.785 6.416C197.572 6.13867 197.305 5.92533 196.985 5.776C196.676 5.62667 196.324 5.552 195.929 5.552C195.513 5.552 195.193 5.62667 194.969 5.776C194.756 5.91467 194.649 6.112 194.649 6.368C194.649 6.624 194.745 6.82133 194.937 6.96C195.129 7.09867 195.38 7.216 195.689 7.312C196.009 7.408 196.34 7.50933 196.681 7.616C197.023 7.712 197.348 7.84533 197.657 8.016C197.967 8.18667 198.217 8.416 198.409 8.704C198.612 8.992 198.713 9.37067 198.713 9.84C198.713 10.5547 198.457 11.12 197.945 11.536C197.444 11.952 196.767 12.16 195.913 12.16ZM203.973 12V4.4H205.413V12H203.973ZM205.413 7.664L204.869 7.424C204.869 6.45333 205.093 5.68 205.541 5.104C205.989 4.528 206.635 4.24 207.477 4.24C207.861 4.24 208.208 4.30933 208.517 4.448C208.827 4.576 209.115 4.79467 209.381 5.104L208.437 6.08C208.277 5.90933 208.101 5.78667 207.909 5.712C207.717 5.63733 207.493 5.6 207.237 5.6C206.704 5.6 206.267 5.77067 205.925 6.112C205.584 6.45333 205.413 6.97067 205.413 7.664ZM213.825 12.16C213.068 12.16 212.385 11.9893 211.777 11.648C211.169 11.296 210.689 10.8213 210.337 10.224C209.985 9.62667 209.809 8.94933 209.809 8.192C209.809 7.44533 209.98 6.77333 210.321 6.176C210.673 5.57867 211.143 5.10933 211.729 4.768C212.327 4.416 212.993 4.24 213.729 4.24C214.433 4.24 215.052 4.4 215.585 4.72C216.129 5.04 216.551 5.48267 216.849 6.048C217.159 6.61333 217.313 7.25333 217.313 7.968C217.313 8.07467 217.308 8.192 217.297 8.32C217.287 8.43733 217.265 8.576 217.233 8.736H210.817V7.536H216.465L215.937 8C215.937 7.488 215.847 7.056 215.665 6.704C215.484 6.34133 215.228 6.064 214.897 5.872C214.567 5.66933 214.167 5.568 213.697 5.568C213.207 5.568 212.775 5.67467 212.401 5.888C212.028 6.10133 211.74 6.4 211.537 6.784C211.335 7.168 211.233 7.62133 211.233 8.144C211.233 8.67733 211.34 9.14667 211.553 9.552C211.767 9.94667 212.071 10.256 212.465 10.48C212.86 10.6933 213.313 10.8 213.825 10.8C214.252 10.8 214.641 10.7253 214.993 10.576C215.356 10.4267 215.665 10.2027 215.921 9.904L216.849 10.848C216.487 11.2747 216.039 11.6 215.505 11.824C214.983 12.048 214.423 12.16 213.825 12.16ZM221.46 12.16C221.033 12.16 220.628 12.1067 220.244 12C219.87 11.8827 219.524 11.7227 219.204 11.52C218.884 11.3067 218.606 11.056 218.372 10.768L219.3 9.84C219.577 10.1813 219.897 10.4373 220.26 10.608C220.622 10.768 221.028 10.848 221.476 10.848C221.924 10.848 222.27 10.7733 222.516 10.624C222.761 10.464 222.884 10.2453 222.884 9.968C222.884 9.69067 222.782 9.47733 222.58 9.328C222.388 9.168 222.137 9.04 221.828 8.944C221.518 8.83733 221.188 8.736 220.836 8.64C220.494 8.53333 220.169 8.4 219.86 8.24C219.55 8.08 219.294 7.86133 219.092 7.584C218.9 7.30667 218.804 6.93867 218.804 6.48C218.804 6.02133 218.916 5.62667 219.14 5.296C219.364 4.95467 219.673 4.69333 220.068 4.512C220.473 4.33067 220.958 4.24 221.524 4.24C222.121 4.24 222.649 4.34667 223.108 4.56C223.577 4.76267 223.961 5.072 224.26 5.488L223.332 6.416C223.118 6.13867 222.852 5.92533 222.532 5.776C222.222 5.62667 221.87 5.552 221.476 5.552C221.06 5.552 220.74 5.62667 220.516 5.776C220.302 5.91467 220.196 6.112 220.196 6.368C220.196 6.624 220.292 6.82133 220.484 6.96C220.676 7.09867 220.926 7.216 221.236 7.312C221.556 7.408 221.886 7.50933 222.228 7.616C222.569 7.712 222.894 7.84533 223.204 8.016C223.513 8.18667 223.764 8.416 223.956 8.704C224.158 8.992 224.26 9.37067 224.26 9.84C224.26 10.5547 224.004 11.12 223.492 11.536C222.99 11.952 222.313 12.16 221.46 12.16ZM229.552 12.16C228.794 12.16 228.112 11.9893 227.504 11.648C226.896 11.296 226.416 10.8213 226.064 10.224C225.712 9.62667 225.536 8.94933 225.536 8.192C225.536 7.44533 225.706 6.77333 226.048 6.176C226.4 5.57867 226.869 5.10933 227.456 4.768C228.053 4.416 228.72 4.24 229.456 4.24C230.16 4.24 230.778 4.4 231.312 4.72C231.856 5.04 232.277 5.48267 232.576 6.048C232.885 6.61333 233.04 7.25333 233.04 7.968C233.04 8.07467 233.034 8.192 233.024 8.32C233.013 8.43733 232.992 8.576 232.96 8.736H226.544V7.536H232.192L231.664 8C231.664 7.488 231.573 7.056 231.392 6.704C231.21 6.34133 230.954 6.064 230.624 5.872C230.293 5.66933 229.893 5.568 229.424 5.568C228.933 5.568 228.501 5.67467 228.128 5.888C227.754 6.10133 227.466 6.4 227.264 6.784C227.061 7.168 226.96 7.62133 226.96 8.144C226.96 8.67733 227.066 9.14667 227.28 9.552C227.493 9.94667 227.797 10.256 228.192 10.48C228.586 10.6933 229.04 10.8 229.552 10.8C229.978 10.8 230.368 10.7253 230.72 10.576C231.082 10.4267 231.392 10.2027 231.648 9.904L232.576 10.848C232.213 11.2747 231.765 11.6 231.232 11.824C230.709 12.048 230.149 12.16 229.552 12.16ZM234.77 12V4.4H236.21V12H234.77ZM236.21 7.664L235.666 7.424C235.666 6.45333 235.89 5.68 236.338 5.104C236.786 4.528 237.431 4.24 238.274 4.24C238.658 4.24 239.004 4.30933 239.314 4.448C239.623 4.576 239.911 4.79467 240.178 5.104L239.234 6.08C239.074 5.90933 238.898 5.78667 238.706 5.712C238.514 5.63733 238.29 5.6 238.034 5.6C237.5 5.6 237.063 5.77067 236.722 6.112C236.38 6.45333 236.21 6.97067 236.21 7.664ZM243.819 12L240.331 4.4H241.931L244.731 10.816H243.803L246.619 4.4H248.155L244.667 12H243.819ZM252.766 12.16C252.009 12.16 251.326 11.9893 250.718 11.648C250.11 11.296 249.63 10.8213 249.278 10.224C248.926 9.62667 248.75 8.94933 248.75 8.192C248.75 7.44533 248.921 6.77333 249.262 6.176C249.614 5.57867 250.083 5.10933 250.67 4.768C251.267 4.416 251.934 4.24 252.67 4.24C253.374 4.24 253.993 4.4 254.526 4.72C255.07 5.04 255.491 5.48267 255.79 6.048C256.099 6.61333 256.254 7.25333 256.254 7.968C256.254 8.07467 256.249 8.192 256.238 8.32C256.227 8.43733 256.206 8.576 256.174 8.736H249.758V7.536H255.406L254.878 8C254.878 7.488 254.787 7.056 254.606 6.704C254.425 6.34133 254.169 6.064 253.838 5.872C253.507 5.66933 253.107 5.568 252.638 5.568C252.147 5.568 251.715 5.67467 251.342 5.888C250.969 6.10133 250.681 6.4 250.478 6.784C250.275 7.168 250.174 7.62133 250.174 8.144C250.174 8.67733 250.281 9.14667 250.494 9.552C250.707 9.94667 251.011 10.256 251.406 10.48C251.801 10.6933 252.254 10.8 252.766 10.8C253.193 10.8 253.582 10.7253 253.934 10.576C254.297 10.4267 254.606 10.2027 254.862 9.904L255.79 10.848C255.427 11.2747 254.979 11.6 254.446 11.824C253.923 12.048 253.363 12.16 252.766 12.16ZM261.2 12.16C260.496 12.16 259.867 11.9893 259.312 11.648C258.757 11.296 258.315 10.8213 257.984 10.224C257.664 9.62667 257.504 8.95467 257.504 8.208C257.504 7.46133 257.664 6.78933 257.984 6.192C258.315 5.59467 258.757 5.12 259.312 4.768C259.867 4.416 260.496 4.24 261.2 4.24C261.765 4.24 262.277 4.36267 262.736 4.608C263.195 4.84267 263.563 5.17333 263.84 5.6C264.128 6.016 264.288 6.50133 264.32 7.056V9.344C264.288 9.888 264.133 10.3733 263.856 10.8C263.579 11.2267 263.211 11.5627 262.752 11.808C262.293 12.0427 261.776 12.16 261.2 12.16ZM261.44 10.8C261.92 10.8 262.336 10.688 262.688 10.464C263.051 10.24 263.333 9.936 263.536 9.552C263.739 9.15733 263.84 8.70933 263.84 8.208C263.84 7.68533 263.733 7.232 263.52 6.848C263.317 6.464 263.035 6.16 262.672 5.936C262.32 5.712 261.904 5.6 261.424 5.6C260.944 5.6 260.523 5.712 260.16 5.936C259.797 6.16 259.509 6.46933 259.296 6.864C259.093 7.248 258.992 7.69067 258.992 8.192C258.992 8.704 259.093 9.15733 259.296 9.552C259.509 9.936 259.797 10.24 260.16 10.464C260.533 10.688 260.96 10.8 261.44 10.8ZM265.2 12H263.744V9.952L264.016 8.096L263.744 6.256V0.575999H265.2V12ZM272.113 12V1.216H273.553V12H272.113ZM270.241 5.712V4.4H275.425V5.712H270.241ZM280.233 12.16C279.486 12.16 278.814 11.984 278.217 11.632C277.62 11.28 277.145 10.8053 276.793 10.208C276.441 9.6 276.265 8.92267 276.265 8.176C276.265 7.44 276.441 6.77867 276.793 6.192C277.145 5.59467 277.62 5.12 278.217 4.768C278.814 4.416 279.486 4.24 280.233 4.24C280.969 4.24 281.636 4.416 282.233 4.768C282.841 5.10933 283.321 5.57867 283.673 6.176C284.025 6.77333 284.201 7.44 284.201 8.176C284.201 8.92267 284.025 9.6 283.673 10.208C283.321 10.8053 282.841 11.28 282.233 11.632C281.636 11.984 280.969 12.16 280.233 12.16ZM280.233 10.768C280.713 10.768 281.14 10.656 281.513 10.432C281.886 10.208 282.18 9.904 282.393 9.52C282.606 9.12533 282.713 8.67733 282.713 8.176C282.713 7.68533 282.601 7.248 282.377 6.864C282.164 6.48 281.87 6.18133 281.497 5.968C281.134 5.744 280.713 5.632 280.233 5.632C279.753 5.632 279.326 5.744 278.953 5.968C278.58 6.18133 278.286 6.48 278.073 6.864C277.86 7.248 277.753 7.68533 277.753 8.176C277.753 8.67733 277.86 9.12533 278.073 9.52C278.286 9.904 278.58 10.208 278.953 10.432C279.326 10.656 279.753 10.768 280.233 10.768ZM292.422 12V1.216H293.926V12H292.422ZM288.646 2.272V0.896H297.686V2.272H288.646ZM300.792 12.16C300.035 12.16 299.352 11.9893 298.744 11.648C298.136 11.296 297.656 10.8213 297.304 10.224C296.952 9.62667 296.776 8.94933 296.776 8.192C296.776 7.44533 296.947 6.77333 297.288 6.176C297.64 5.57867 298.11 5.10933 298.696 4.768C299.294 4.416 299.96 4.24 300.696 4.24C301.4 4.24 302.019 4.4 302.552 4.72C303.096 5.04 303.518 5.48267 303.816 6.048C304.126 6.61333 304.28 7.25333 304.28 7.968C304.28 8.07467 304.275 8.192 304.264 8.32C304.254 8.43733 304.232 8.576 304.2 8.736H297.784V7.536H303.432L302.904 8C302.904 7.488 302.814 7.056 302.632 6.704C302.451 6.34133 302.195 6.064 301.864 5.872C301.534 5.66933 301.134 5.568 300.664 5.568C300.174 5.568 299.742 5.67467 299.368 5.888C298.995 6.10133 298.707 6.4 298.504 6.784C298.302 7.168 298.2 7.62133 298.2 8.144C298.2 8.67733 298.307 9.14667 298.52 9.552C298.734 9.94667 299.038 10.256 299.432 10.48C299.827 10.6933 300.28 10.8 300.792 10.8C301.219 10.8 301.608 10.7253 301.96 10.576C302.323 10.4267 302.632 10.2027 302.888 9.904L303.816 10.848C303.454 11.2747 303.006 11.6 302.472 11.824C301.95 12.048 301.39 12.16 300.792 12.16ZM309.242 12.16C308.549 12.16 307.92 11.9893 307.354 11.648C306.789 11.296 306.341 10.8213 306.01 10.224C305.69 9.62667 305.53 8.95467 305.53 8.208C305.53 7.46133 305.69 6.78933 306.01 6.192C306.341 5.59467 306.784 5.12 307.338 4.768C307.904 4.416 308.538 4.24 309.242 4.24C309.818 4.24 310.33 4.36267 310.778 4.608C311.237 4.84267 311.605 5.17333 311.882 5.6C312.16 6.016 312.314 6.50133 312.346 7.056V9.344C312.314 9.888 312.16 10.3733 311.882 10.8C311.616 11.2267 311.253 11.5627 310.794 11.808C310.346 12.0427 309.829 12.16 309.242 12.16ZM309.482 10.8C310.197 10.8 310.773 10.56 311.21 10.08C311.648 9.58933 311.866 8.96533 311.866 8.208C311.866 7.68533 311.765 7.232 311.562 6.848C311.37 6.45333 311.093 6.14933 310.73 5.936C310.368 5.712 309.946 5.6 309.466 5.6C308.986 5.6 308.56 5.712 308.186 5.936C307.824 6.16 307.536 6.46933 307.322 6.864C307.12 7.248 307.018 7.69067 307.018 8.192C307.018 8.704 307.12 9.15733 307.322 9.552C307.536 9.936 307.829 10.24 308.202 10.464C308.576 10.688 309.002 10.8 309.482 10.8ZM311.77 12V9.952L312.042 8.096L311.77 6.256V4.4H313.226V12H311.77ZM315.483 12V4.4H316.923V12H315.483ZM320.619 12V7.408C320.619 6.84267 320.443 6.4 320.091 6.08C319.75 5.74933 319.318 5.584 318.795 5.584C318.443 5.584 318.128 5.65867 317.851 5.808C317.574 5.95733 317.35 6.16533 317.179 6.432C317.008 6.69867 316.923 7.01867 316.923 7.392L316.331 7.104C316.331 6.528 316.454 6.02667 316.699 5.6C316.955 5.17333 317.302 4.84267 317.739 4.608C318.176 4.36267 318.667 4.24 319.211 4.24C319.744 4.24 320.224 4.35733 320.651 4.592C321.088 4.82667 321.43 5.15733 321.675 5.584C321.931 6.01067 322.059 6.51733 322.059 7.104V12H320.619ZM325.755 12V7.408C325.755 6.84267 325.579 6.4 325.227 6.08C324.886 5.74933 324.459 5.584 323.947 5.584C323.595 5.584 323.275 5.65867 322.987 5.808C322.71 5.95733 322.486 6.16533 322.315 6.432C322.144 6.69867 322.059 7.01867 322.059 7.392L321.243 7.104C321.275 6.51733 321.43 6.016 321.707 5.6C321.995 5.17333 322.363 4.84267 322.811 4.608C323.259 4.36267 323.75 4.24 324.283 4.24C324.838 4.24 325.334 4.35733 325.771 4.592C326.208 4.82667 326.555 5.15733 326.811 5.584C327.078 6.01067 327.211 6.52267 327.211 7.12V12H325.755ZM338.099 12.16C337.32 12.16 336.589 12.016 335.907 11.728C335.235 11.4293 334.643 11.0187 334.131 10.496C333.629 9.97333 333.235 9.36533 332.947 8.672C332.659 7.97867 332.515 7.232 332.515 6.432C332.515 5.632 332.659 4.89067 332.947 4.208C333.235 3.51467 333.635 2.90667 334.147 2.384C334.659 1.86133 335.256 1.456 335.939 1.168C336.632 0.879999 337.384 0.735999 338.195 0.735999C339.08 0.735999 339.896 0.906666 340.643 1.248C341.389 1.58933 342.013 2.08 342.515 2.72L341.475 3.76C341.123 3.248 340.659 2.85867 340.083 2.592C339.507 2.31467 338.877 2.176 338.195 2.176C337.384 2.176 336.664 2.35733 336.035 2.72C335.416 3.08267 334.931 3.584 334.579 4.224C334.237 4.864 334.067 5.6 334.067 6.432C334.067 7.27467 334.243 8.016 334.595 8.656C334.947 9.296 335.421 9.79733 336.019 10.16C336.616 10.5227 337.299 10.704 338.067 10.704C338.845 10.704 339.517 10.5547 340.083 10.256C340.659 9.95733 341.101 9.52 341.411 8.944C341.72 8.35733 341.875 7.64267 341.875 6.8L342.787 7.456H337.987V6.08H343.427V6.304C343.427 7.59467 343.197 8.67733 342.739 9.552C342.291 10.416 341.661 11.0667 340.851 11.504C340.051 11.9413 339.133 12.16 338.099 12.16ZM348.873 12.16C348.116 12.16 347.433 11.9893 346.825 11.648C346.217 11.296 345.737 10.8213 345.385 10.224C345.033 9.62667 344.857 8.94933 344.857 8.192C344.857 7.44533 345.028 6.77333 345.369 6.176C345.721 5.57867 346.191 5.10933 346.777 4.768C347.375 4.416 348.041 4.24 348.777 4.24C349.481 4.24 350.1 4.4 350.633 4.72C351.177 5.04 351.599 5.48267 351.897 6.048C352.207 6.61333 352.361 7.25333 352.361 7.968C352.361 8.07467 352.356 8.192 352.345 8.32C352.335 8.43733 352.313 8.576 352.281 8.736H345.865V7.536H351.513L350.985 8C350.985 7.488 350.895 7.056 350.713 6.704C350.532 6.34133 350.276 6.064 349.945 5.872C349.615 5.66933 349.215 5.568 348.745 5.568C348.255 5.568 347.823 5.67467 347.449 5.888C347.076 6.10133 346.788 6.4 346.585 6.784C346.383 7.168 346.281 7.62133 346.281 8.144C346.281 8.67733 346.388 9.14667 346.601 9.552C346.815 9.94667 347.119 10.256 347.513 10.48C347.908 10.6933 348.361 10.8 348.873 10.8C349.3 10.8 349.689 10.7253 350.041 10.576C350.404 10.4267 350.713 10.2027 350.969 9.904L351.897 10.848C351.535 11.2747 351.087 11.6 350.553 11.824C350.031 12.048 349.471 12.16 348.873 12.16ZM357.324 12.16C356.63 12.16 356.001 11.9893 355.436 11.648C354.87 11.296 354.422 10.8213 354.092 10.224C353.772 9.62667 353.612 8.95467 353.612 8.208C353.612 7.46133 353.772 6.78933 354.092 6.192C354.422 5.59467 354.865 5.12 355.42 4.768C355.985 4.416 356.62 4.24 357.324 4.24C357.9 4.24 358.412 4.36267 358.86 4.608C359.318 4.84267 359.686 5.17333 359.964 5.6C360.241 6.016 360.396 6.50133 360.428 7.056V9.344C360.396 9.888 360.241 10.3733 359.964 10.8C359.697 11.2267 359.334 11.5627 358.876 11.808C358.428 12.0427 357.91 12.16 357.324 12.16ZM357.564 10.8C358.278 10.8 358.854 10.56 359.292 10.08C359.729 9.58933 359.948 8.96533 359.948 8.208C359.948 7.68533 359.846 7.232 359.644 6.848C359.452 6.45333 359.174 6.14933 358.812 5.936C358.449 5.712 358.028 5.6 357.548 5.6C357.068 5.6 356.641 5.712 356.268 5.936C355.905 6.16 355.617 6.46933 355.404 6.864C355.201 7.248 355.1 7.69067 355.1 8.192C355.1 8.704 355.201 9.15733 355.404 9.552C355.617 9.936 355.91 10.24 356.284 10.464C356.657 10.688 357.084 10.8 357.564 10.8ZM359.852 12V9.952L360.124 8.096L359.852 6.256V4.4H361.308V12H359.852ZM363.564 12V4.4H365.004V12H363.564ZM365.004 7.664L364.46 7.424C364.46 6.45333 364.684 5.68 365.132 5.104C365.58 4.528 366.225 4.24 367.068 4.24C367.452 4.24 367.799 4.30933 368.108 4.448C368.417 4.576 368.705 4.79467 368.972 5.104L368.028 6.08C367.868 5.90933 367.692 5.78667 367.5 5.712C367.308 5.63733 367.084 5.6 366.828 5.6C366.295 5.6 365.857 5.77067 365.516 6.112C365.175 6.45333 365.004 6.97067 365.004 7.664Z" fill="white"/>
</svg>
