<svg width="32" height="32" viewBox="0 0 32 32" fill="none" xmlns="http://www.w3.org/2000/svg">
<path d="M14 25.9844H16V27.9844H14V25.9844ZM15 10.9844C15.6875 10.9844 16.3333 11.1146 16.9375 11.375C17.5417 11.6354 18.0677 11.9948 18.5156 12.4531C18.9635 12.9115 19.3229 13.4427 19.5938 14.0469C19.8646 14.651 20 15.2969 20 15.9844C20 16.6094 19.901 17.1562 19.7031 17.625C19.5052 18.0938 19.2604 18.5104 18.9688 18.875C18.6771 19.2396 18.3542 19.5781 18 19.8906C17.6458 20.2031 17.3281 20.5156 17.0469 20.8281C16.7656 21.1406 16.5156 21.4688 16.2969 21.8125C16.0781 22.1562 15.9792 22.5469 16 22.9844V23.9844H14V22.9844C14 22.3594 14.099 21.8177 14.2969 21.3594C14.4948 20.901 14.7396 20.4844 15.0312 20.1094C15.3229 19.7344 15.6458 19.3906 16 19.0781C16.3542 18.7656 16.6719 18.4583 16.9531 18.1562C17.2344 17.8542 17.4844 17.526 17.7031 17.1719C17.9219 16.8177 18.0208 16.4219 18 15.9844C18 15.5781 17.9219 15.1927 17.7656 14.8281C17.6094 14.4635 17.3958 14.1458 17.125 13.875C16.8542 13.6042 16.5312 13.3854 16.1562 13.2188C15.7812 13.0521 15.3958 12.974 15 12.9844C14.5938 12.9844 14.2083 13.0625 13.8438 13.2188C13.4792 13.375 13.1615 13.5885 12.8906 13.8594C12.6198 14.1302 12.401 14.4531 12.2344 14.8281C12.0677 15.2031 11.9896 15.5885 12 15.9844H10C10 15.2969 10.1302 14.651 10.3906 14.0469C10.651 13.4427 11.0052 12.9167 11.4531 12.4688C11.901 12.0208 12.4323 11.6615 13.0469 11.3906C13.6615 11.1198 14.3125 10.9844 15 10.9844ZM28 8.57812V32H2V0H19.5L28 8.57812ZM20.0781 8H24.6094L20.0781 3.4375V8ZM26 30V10H18.0781V2H4V30H26Z" fill="#82808F"/>
</svg>
