<svg width="24" height="24" viewBox="0 0 24 24" fill="none" xmlns="http://www.w3.org/2000/svg">
<g clip-path="url(#clip0_2150_17424)">
<path d="M0 6.0395V8.66683H3.752L0 6.0395ZM3.10933 20.6668H8.66667V16.7755L3.10933 20.6668ZM15.3333 16.7762V20.6668H20.89L15.3333 16.7762ZM0 15.3335V17.9608L3.75333 15.3335H0ZM20.8913 3.3335H15.3333V7.22483L20.8913 3.3335ZM24 17.9615V15.3335H20.246L24 17.9615ZM24 8.66683V6.0395L20.2473 8.66683H24ZM8.66667 3.3335H3.10933L8.66667 7.22483V3.3335Z" fill="#00247D"/>
<path d="M16.7608 15.3335L23.2355 19.8675C23.5517 19.5417 23.7789 19.1403 23.8955 18.7015L19.0855 15.3335H16.7608ZM8.66747 15.3335H7.24014L0.766135 19.8668C1.11347 20.2202 1.5588 20.4728 2.05814 20.5902L8.66747 15.9622V15.3335ZM15.3341 8.66682H16.7615L23.2355 4.13349C22.8822 3.77501 22.4344 3.52417 21.9441 3.41016L15.3341 8.03816V8.66682ZM7.24014 8.66682L0.766135 4.13349C0.450104 4.45947 0.222678 4.86085 0.105469 5.29949L4.91547 8.66682H7.24014Z" fill="#CF1B2B"/>
<path d="M24 14.0002H14V20.6668H15.3333V16.7762L20.89 20.6668H21.3333C21.6875 20.6669 22.0381 20.5962 22.3646 20.4589C22.6911 20.3217 22.9869 20.1206 23.2347 19.8675L16.76 15.3335H19.0847L23.8947 18.7015C23.9567 18.4768 24 18.2442 24 18.0002V17.9615L20.246 15.3335H24V14.0002ZM0 14.0002V15.3335H3.75333L0 17.9608V18.0002C0 18.7275 0.292667 19.3855 0.765333 19.8668L7.23933 15.3335H8.66667V15.9622L2.05733 20.5895C2.25333 20.6362 2.456 20.6668 2.66667 20.6668H3.10933L8.66667 16.7755V20.6668H10V14.0002H0ZM24 6.00016C24.0004 5.30148 23.7254 4.6308 23.2347 4.1335L16.7607 8.66683H15.3333V8.03816L21.9433 3.41016C21.7436 3.36118 21.5389 3.33545 21.3333 3.3335H20.8913L15.3333 7.22483V3.3335H14V10.0002H24V8.66683H20.2473L24 6.0395V6.00016ZM8.66667 3.3335V7.22483L3.10933 3.3335H2.66667C2.31242 3.33334 1.96171 3.40404 1.63519 3.54143C1.30866 3.67881 1.01291 3.88012 0.765333 4.1335L7.23933 8.66683H4.91467L0.104667 5.2995C0.0385201 5.5273 0.00331561 5.76297 0 6.00016L0 6.0395L3.752 8.66683H0V10.0002H10V3.3335H8.66667Z" fill="#EEEEEE"/>
<path d="M14 10.0002V3.3335H10V10.0002H0V14.0002H10V20.6668H14V14.0002H24V10.0002H14Z" fill="#CF1B2B"/>
</g>
<defs>
<clipPath id="clip0_2150_17424">
<rect width="24" height="24" fill="white"/>
</clipPath>
</defs>
</svg>
