<svg width="48" height="48" viewBox="0 0 48 48" fill="none" xmlns="http://www.w3.org/2000/svg">
<path d="M9.596 31.5C9.32048 31.501 9.04786 31.4437 8.796 31.332C7.37072 30.7079 6.15811 29.6822 5.30638 28.3801C4.45466 27.078 4.0007 25.5559 4 24C4.00206 22.2264 4.59241 20.5037 5.67854 19.1016C6.76467 17.6995 8.28523 16.6973 10.002 16.252L10 16C10 9.38201 15.382 4.00001 22 4.00001C24.8341 3.99632 27.5773 5.00022 29.7396 6.83239C31.9018 8.66457 33.3424 11.2057 33.804 14.002C33.892 14.525 33.7686 15.0615 33.4611 15.4936C33.1535 15.9257 32.687 16.2179 32.164 16.306C31.6415 16.3902 31.1069 16.2653 30.6757 15.9584C30.2446 15.6515 29.9515 15.1873 29.86 14.666C29.5531 12.8033 28.5942 11.1103 27.1544 9.88926C25.7147 8.66821 23.8878 7.99861 22 8.00001C20.8117 8.00079 19.6385 8.266 18.5655 8.77642C17.4924 9.28684 16.5464 10.0297 15.796 10.951C15.0456 11.8724 14.5097 12.9492 14.227 14.1034C13.9444 15.2576 13.9222 16.4602 14.162 17.624L14.68 20.164L11.818 19.988C9.794 20 8 21.794 8 24C8 25.59 8.942 27.03 10.4 27.668C10.8208 27.8523 11.1653 28.1759 11.3757 28.5843C11.586 28.9927 11.6494 29.4611 11.555 29.9107C11.4607 30.3603 11.2144 30.7637 10.8577 31.0532C10.5009 31.3426 10.0554 31.5004 9.596 31.5ZM38 14C37.4696 14 36.9609 14.2107 36.5858 14.5858C36.2107 14.9609 36 15.4696 36 16C36 16.5304 36.2107 17.0391 36.5858 17.4142C36.9609 17.7893 37.4696 18 38 18C38.5304 18 39.0391 18.2107 39.4142 18.5858C39.7893 18.9609 40 19.4696 40 20C40 20.5304 39.7893 21.0391 39.4142 21.4142C39.0391 21.7893 38.5304 22 38 22H18.8C18.2696 22 17.7609 22.2107 17.3858 22.5858C17.0107 22.9609 16.8 23.4696 16.8 24C16.8 24.5304 17.0107 25.0391 17.3858 25.4142C17.7609 25.7893 18.2696 26 18.8 26H28C28.5304 26 29.0391 26.2107 29.4142 26.5858C29.7893 26.9609 30 27.4696 30 28C30 28.5304 29.7893 29.0391 29.4142 29.4142C29.0391 29.7893 28.5304 30 28 30H18C14.692 30 12 32.692 12 36C12 39.308 14.692 42 18 42C18.5304 42 19.0391 41.7893 19.4142 41.4142C19.7893 41.0392 20 40.5304 20 40C20 39.4696 19.7893 38.9609 19.4142 38.5858C19.0391 38.2107 18.5304 38 18 38C17.4696 38 16.9609 37.7893 16.5858 37.4142C16.2107 37.0392 16 36.5304 16 36C16 35.4696 16.2107 34.9609 16.5858 34.5858C16.9609 34.2107 17.4696 34 18 34H28C31.308 34 34 31.308 34 28C34 27.294 33.856 26.628 33.63 26H38C41.308 26 44 23.308 44 20C44 16.692 41.308 14 38 14Z" fill="#EF6820"/>
</svg>
